PathFileType	4	(X/Y/Z)	C:/Users/opensim2020/Desktop/walking_exp_matlab/subject03_walking05_straight_03.trc																																																																																																																																					
DataRate	CameraRate	NumFrames	NumMarkers	Units	OrigDataRate	OrigDataStartFrame	OrigNumFrames																																																																																																																																	
100	100	9	45	mm	100	2294	293																																																																																																																																	
Frame#	Time	LFHD			RFHD			LBHD			RBHD			C7			T10			CLAV			STRN			RBAK			LSHO			LUPA			LELB			LFRM			LWRA			LWRB			LFIN			RSHO			RUPA			RELB			RFRM			RWRA			RWRB			RFIN			LASI			RASI			LPSI			RPSI			LTHI			LKNE			LTIB			LANK			LHEE			LTOE			RTHI			RKNE			RTIB			RANK			RHEE			RTOE			*39			*40			*41			*42			*43			*44		
		X1	Y1	Z1	X2	Y2	Z2	X3	Y3	Z3	X4	Y4	Z4	X5	Y5	Z5	X6	Y6	Z6	X7	Y7	Z7	X8	Y8	Z8	X9	Y9	Z9	X10	Y10	Z10	X11	Y11	Z11	X12	Y12	Z12	X13	Y13	Z13	X14	Y14	Z14	X15	Y15	Z15	X16	Y16	Z16	X17	Y17	Z17	X18	Y18	Z18	X19	Y19	Z19	X20	Y20	Z20	X21	Y21	Z21	X22	Y22	Z22	X23	Y23	Z23	X24	Y24	Z24	X25	Y25	Z25	X26	Y26	Z26	X27	Y27	Z27	X28	Y28	Z28	X29	Y29	Z29	X30	Y30	Z30	X31	Y31	Z31	X32	Y32	Z32	X33	Y33	Z33	X34	Y34	Z34	X35	Y35	Z35	X36	Y36	Z36	X37	Y37	Z37	X38	Y38	Z38	X39	Y39	Z39	X40	Y40	Z40	X41	Y41	Z41	X42	Y42	Z42	X43	Y43	Z43	X44	Y44	Z44	X45	Y45	Z45
																																																																																																																																								
184	1.83	166.36299	1603.19202	-1080.37048	150.03296	1608.74658	-948.35223	34.36269	1574.99524	-1091.89514	23.59381	1579.81567	-961.21722	-14.72659	1411.30762	-1027.56982	-54.10923	1096.83752	-1025.40186	103.99946	1330.92224	-1026.56091	145.68973	1165.86621	-1028.64526	-71.11826	1237.34045	-926.27582	54.97269	1367.17517	-1183.18945	23.44034	1167.93506	-1248.31311	15.88401	1044.45593	-1256.25623	24.67308	914.0722	-1253.13904	25.80159	795.36224	-1221.09583	4.47817	802.56927	-1272.39148	5.82629	718.27777	-1260.95435	60.58589	1358.84863	-867.36548	101.45923	1144.66284	-788.28271	146.23326	1041.35168	-774.57904	201.62854	916.11615	-775.38568	253.6582	833.04071	-815.16595	230.69617	820.28845	-767.8714	273.43829	760.00037	-780.67444	118.72287	931.6452	-1135.70349	107.07224	933.43054	-898.48834	-47.15818	948.43292	-1095.95923	-51.56245	964.14636	-946.50909	143.92982	637.86926	-1188.3396	214.12607	474.85492	-1154.69849	193.32022	280.09113	-1157.16187	210.59381	69.85941	-1121.47363	176.63623	30.31863	-1080.3916	359.62729	50.48778	-1107.38538	23.57774	641.23218	-869.50745	10.82071	462.58002	-908.45575	-63.7379	284.43933	-913.33197	-122.56976	76.92403	-968.71722	-166.92084	49.70327	-1021.77661	16.71156	31.40665	-974.94189	86.73011	1675.69055	-1038.83533	NaN	NaN	NaN	NaN	NaN	NaN	NaN	NaN	NaN	NaN	NaN	NaN	NaN	NaN	NaN
185	1.84	176.0134	1602.23071	-1081.3092	159.62273	1608.09961	-949.10187	44.1391	1573.57678	-1092.78931	33.36305	1578.74841	-962.06213	-4.71979	1410.40405	-1028.47546	-44.86623	1096.25391	-1026.98938	113.97906	1329.7666	-1026.91077	155.36868	1164.66406	-1028.70239	-61.84525	1236.74683	-927.2652	65.65625	1366.05298	-1183.8197	31.84592	1166.90601	-1248.95203	22.61887	1043.62939	-1256.84912	29.92462	913.13733	-1253.51038	29.82296	794.49585	-1221.19165	8.42879	801.84174	-1272.47412	8.74068	717.53845	-1260.74072	70.05677	1357.89001	-867.9046	111.29838	1143.99023	-788.41992	157.10519	1041.14294	-774.86688	214.13176	916.66241	-775.82202	267.48065	834.63953	-816.0744	244.59218	821.30035	-768.93848	288.55768	762.04669	-781.71259	128.93327	930.20618	-1135.9657	115.90474	932.67322	-898.91626	-37.1327	947.284	-1097.42676	-42.68336	963.28326	-948.02295	150.6015	635.12579	-1188.89331	221.63779	472.66379	-1153.67847	209.06329	278.52231	-1156.75537	237.26723	69.05608	-1122.25891	205.11783	28.88964	-1081.08008	387.50061	53.71681	-1108.07788	29.97167	640.90582	-869.7536	16.04672	462.21835	-908.47162	-60.73338	284.85767	-913.57263	-121.83125	78.0329	-969.02795	-166.58231	51.21533	-1022.12225	16.7558	31.35345	-974.95264	NaN	NaN	NaN	NaN	NaN	NaN	NaN	NaN	NaN	NaN	NaN	NaN	NaN	NaN	NaN	NaN	NaN	NaN
186	1.85	185.69749	1601.28027	-1082.31335	168.98886	1607.36218	-950.10773	53.87079	1572.21118	-1093.68201	43.03622	1577.65222	-963.00549	5.24322	1409.52673	-1029.32507	-34.81802	1095.16736	-1028.51648	123.97005	1328.68774	-1027.32898	165.16376	1163.47595	-1028.75061	-52.40553	1236.08484	-928.3772	76.39884	1364.95325	-1184.47864	40.53825	1165.9751	-1249.88696	29.54306	1042.8772	-1257.33777	35.46053	912.28345	-1253.86499	34.33495	793.82684	-1221.16846	12.71707	801.2439	-1272.52173	12.08128	716.91608	-1260.61511	79.61119	1356.87402	-868.55023	121.06346	1143.29272	-788.84723	167.64954	1040.83826	-775.21436	226.38004	917.18494	-776.73438	280.95917	836.18506	-817.09625	258.1308	822.18256	-770.10907	303.27585	764.04211	-782.91901	139.28391	928.72607	-1136.26184	123.82013	931.62012	-898.60339	-26.94874	946.17133	-1098.91113	-33.66206	962.40027	-949.59003	157.36546	632.53607	-1189.82336	228.74684	470.42584	-1152.64917	223.9129	277.00098	-1156.32581	262.10486	68.90408	-1123.09351	231.5802	27.80562	-1082.02771	413.21802	58.01492	-1108.79529	36.55988	640.50995	-870.0838	21.51859	461.86078	-908.45612	-57.39075	285.26614	-913.73303	-121.25557	79.24108	-969.20288	-166.16818	52.81975	-1022.42303	16.78949	31.3072	-974.92554	NaN	NaN	NaN	NaN	NaN	NaN	NaN	NaN	NaN	NaN	NaN	NaN	NaN	NaN	NaN	NaN	NaN	NaN
187	1.86	195.48819	1600.39001	-1083.31067	178.9314	1606.88159	-951.15088	63.73723	1570.85962	-1094.64636	52.85363	1576.58081	-963.97156	15.31084	1408.57825	-1030.28772	-25.04725	1094.3302	-1030.01636	134.06532	1327.60291	-1027.71997	174.99379	1162.3855	-1028.88586	-43.00639	1235.3418	-929.65704	87.15347	1363.9165	-1185.1814	49.07079	1165.38635	-1249.94043	36.82561	1042.22803	-1257.8446	41.47472	911.57654	-1254.26221	39.18143	793.19647	-1221.32629	17.43437	800.70801	-1272.61536	15.99127	716.48267	-1260.51709	89.14126	1355.91223	-869.17621	130.73694	1142.54773	-789.27271	177.97995	1040.45483	-775.62378	238.26382	917.59595	-777.66687	294.10748	837.62708	-818.26111	271.29077	823.04767	-771.44531	317.49557	765.84442	-784.21375	149.61029	927.24957	-1136.60315	132.47345	930.69678	-898.85791	-16.68302	945.13202	-1100.44971	-24.58897	961.50568	-951.19269	164.34863	630.11047	-1191.00989	235.55931	468.09406	-1151.42188	237.8848	275.86002	-1155.86157	284.87262	69.28648	-1124.01953	256.18039	26.71277	-1083.19287	436.5986	63.24924	-1109.67566	43.40679	640.14185	-870.38074	27.31746	461.44052	-908.33484	-53.88725	285.7005	-913.81989	-120.79916	80.59218	-969.17456	-166.00754	54.79797	-1022.43939	16.86782	31.25269	-974.8949	NaN	NaN	NaN	NaN	NaN	NaN	NaN	NaN	NaN	NaN	NaN	NaN	NaN	NaN	NaN	NaN	NaN	NaN
188	1.87	205.22676	1599.62671	-1084.22375	188.41599	1606.22083	-952.18262	73.58537	1569.64148	-1095.58472	62.62874	1575.672	-964.95319	25.4351	1407.68738	-1031.27356	-15.06886	1093.50879	-1031.53235	144.22612	1326.58032	-1028.26831	184.87871	1161.39319	-1029.09985	-33.49475	1234.61182	-930.98181	97.95802	1362.94446	-1185.94421	58.0433	1164.73535	-1250.56848	44.34627	1041.67993	-1258.41357	47.72776	910.96191	-1254.66235	44.52667	792.6441	-1221.53027	22.63264	800.30487	-1272.73071	20.32911	716.0462	-1260.49072	98.67495	1355.00452	-869.90759	140.29921	1141.80261	-789.83618	188.02071	1040.00439	-776.11505	249.83556	917.89325	-778.53845	306.81174	839.02991	-819.48114	284.09351	823.79761	-772.86023	331.21887	767.53894	-785.63855	160.16881	925.88916	-1136.95093	141.35695	929.79559	-899.19501	-6.40618	944.12982	-1102.02222	-15.41503	960.6004	-952.79657	171.70937	628.03345	-1192.125	242.27876	465.4938	-1150.23718	251.0219	275.04996	-1155.35876	305.41553	69.95189	-1124.98096	278.14908	26.31871	-1084.46399	457.55511	68.49976	-1110.64429	50.3794	639.7749	-870.52563	33.39359	461.00693	-908.26154	-50.06331	286.2114	-913.83557	-120.0135	81.96091	-969.12054	-165.60361	56.77757	-1022.41766	16.97078	31.21454	-974.82745	NaN	NaN	NaN	NaN	NaN	NaN	NaN	NaN	NaN	NaN	NaN	NaN	NaN	NaN	NaN	NaN	NaN	NaN
189	1.88	215.04054	1598.84167	-1085.22693	198.0864	1605.71533	-953.1449	83.45949	1568.41101	-1096.58899	72.46344	1574.84692	-965.95313	35.58909	1406.83215	-1032.32458	-5.11781	1092.70789	-1033.02698	154.42213	1325.64331	-1028.81897	195.04179	1160.46497	-1029.35022	-23.87517	1233.80396	-932.48456	108.81261	1362.09644	-1186.72742	67.37096	1164.09851	-1251.33911	52.33827	1041.17322	-1258.93005	54.35433	910.4906	-1255.00159	50.2069	792.14709	-1221.96069	28.21904	799.96851	-1272.89233	25.24362	715.76025	-1260.54895	108.25423	1354.10144	-870.66278	149.86987	1141.06409	-790.4873	197.91653	1039.5127	-776.67322	261.11548	918.17841	-779.60419	319.15182	840.23956	-820.81647	296.42645	824.4624	-774.36426	344.51563	769.117	-787.229	170.80295	924.75391	-1137.3241	150.29097	928.85742	-899.50262	3.9525	943.33801	-1103.51672	-6.12693	959.70032	-954.38403	179.63911	626.17865	-1192.84497	249.42433	463.49631	-1148.9353	263.50912	274.53714	-1155.07764	323.9361	70.92696	-1125.8479	297.68265	26.19147	-1085.62683	476.37057	73.13129	-1111.64868	57.63328	639.47333	-870.53955	39.81892	460.58847	-908.25378	-46.03417	286.75668	-913.82947	-119.41334	83.55367	-968.92682	-165.0923	59.00694	-1022.19342	17.09586	31.15161	-974.79333	NaN	NaN	NaN	NaN	NaN	NaN	NaN	NaN	NaN	NaN	NaN	NaN	NaN	NaN	NaN	NaN	NaN	NaN
190	1.89	224.85725	1598.20276	-1086.23315	208.03026	1605.375	-954.21545	93.40444	1567.34143	-1097.6416	82.29429	1573.95032	-966.97394	45.80922	1406.00977	-1033.49646	4.92029	1091.86743	-1034.43616	164.63712	1324.80432	-1029.43579	205.26154	1159.61621	-1029.71338	-14.20631	1233.01453	-934.00024	119.67673	1361.27087	-1187.62097	76.82844	1163.50513	-1252.01123	60.57666	1040.71826	-1259.48608	61.65225	910.047	-1255.53674	56.54452	791.78815	-1222.12061	34.31912	799.70673	-1273.14758	30.63632	715.53455	-1260.60779	117.86442	1353.25696	-871.46924	159.33812	1140.35266	-791.26984	207.54117	1038.98694	-777.32678	272.00851	918.3349	-780.69025	331.16309	841.50403	-822.20056	308.34879	825.02106	-776.03125	357.31546	770.57263	-788.86761	181.51146	923.77118	-1137.64514	159.5152	928.04187	-899.94073	14.41584	942.62915	-1104.98486	3.35044	958.80054	-955.99109	188.06638	624.52039	-1193.00879	257.10422	461.99069	-1147.56128	275.35938	274.2822	-1154.91748	339.98419	71.54108	-1126.65503	314.4989	26.32116	-1086.7843	492.80368	76.35141	-1112.29297	65.22375	639.11926	-870.86523	46.30473	460.27832	-908.35425	-41.72302	287.43085	-913.776	-118.1501	85.45288	-968.71619	-164.4839	61.58935	-1021.9032	17.23924	31.08157	-974.73254	143.08987	1666.8269	-1048.50647	NaN	NaN	NaN	NaN	NaN	NaN	NaN	NaN	NaN	NaN	NaN	NaN	NaN	NaN	NaN
191	1.9	234.69511	1597.6947	-1087.18823	217.64081	1605.02197	-955.46484	103.38075	1566.36523	-1098.67773	92.07841	1573.06531	-968.10272	56.03778	1405.27271	-1034.60767	15.3981	1091.22021	-1035.85632	174.94977	1324.06506	-1030.12109	215.48882	1158.92554	-1030.06628	-4.93088	1232.25012	-935.6499	130.57773	1360.56616	-1188.56995	86.56689	1162.99023	-1252.71362	69.24393	1040.30261	-1260.03625	69.40408	909.66272	-1256.16968	63.28934	791.47888	-1222.42798	40.96453	799.47772	-1273.38525	36.64199	715.39288	-1260.72485	127.63264	1352.45593	-872.33063	168.85236	1139.70508	-792.14423	217.04799	1038.42651	-778.08777	282.60992	918.42932	-781.9007	342.70529	842.48199	-823.54474	319.81787	825.46228	-777.72473	369.56451	771.74329	-790.66443	192.401	923.06207	-1138.04285	168.44273	927.14966	-900.12616	24.9854	942.09271	-1106.41089	13.01561	958.03223	-957.4809	197.03868	623.04779	-1192.65161	265.11813	460.48111	-1146.73621	286.10107	273.9462	-1154.85913	353.31677	71.64524	-1127.15454	328.48706	25.84289	-1087.81616	506.25256	78.13087	-1112.52454	73.22328	638.92157	-871.27795	53.37489	460.03107	-908.26288	-37.27113	288.27628	-913.659	-117.06931	87.59063	-968.38696	-163.61792	64.38078	-1021.60742	17.41651	31.01404	-974.63733	152.64699	1666.0874	-1049.6698	NaN	NaN	NaN	NaN	NaN	NaN	NaN	NaN	NaN	NaN	NaN	NaN	NaN	NaN	NaN
192	1.91	244.57985	1597.32324	-1088.16382	227.25699	1604.70789	-956.23633	113.37395	1565.52356	-1099.58606	101.84962	1572.35583	-969.24573	66.36288	1404.56836	-1035.8623	25.821	1090.66064	-1037.20276	185.33551	1323.47437	-1030.84741	225.48239	1158.29626	-1030.39063	5.25071	1231.51831	-937.37408	141.51358	1359.96826	-1189.5354	96.55624	1162.34216	-1253.69104	78.30396	1039.91589	-1260.72485	77.27958	909.22205	-1256.45911	70.53316	791.21619	-1222.79333	48.11412	799.25519	-1273.70471	43.13206	715.16724	-1260.8783	137.24631	1351.85791	-873.21149	178.21806	1139.07056	-793.0816	226.38675	1037.85828	-778.98383	292.87689	918.44928	-783.16864	353.87314	843.39221	-825.0611	330.86984	825.77893	-779.51202	381.33249	772.79077	-792.45593	203.23488	922.49969	-1138.36755	178.10269	926.44745	-900.565	35.74393	941.66418	-1107.84741	22.91294	957.40631	-958.99207	206.51111	621.99799	-1192.13745	273.81714	459.29861	-1146.42432	295.77301	273.29135	-1154.91357	363.71597	71.04099	-1127.22522	339.11157	24.7405	-1088.18066	516.69629	78.21474	-1111.9054	81.48125	638.82001	-871.63458	60.71484	459.88635	-908.24176	-32.54773	289.28339	-913.44971	-115.63712	89.90445	-968.01508	-162.86711	67.64321	-1021.06903	17.60515	30.94114	-974.56177	NaN	NaN	NaN	NaN	NaN	NaN	NaN	NaN	NaN	NaN	NaN	NaN	NaN	NaN	NaN	NaN	NaN	NaN
